<mxfile host="app.diagrams.net" agent="Mozilla/5.0 (Macintosh; Intel Mac OS X 10.15; rv:143.0) Gecko/20100101 Firefox/143.0" version="28.2.5">
  <diagram name="Page-1" id="Gh6xkGLJuU8heK1uXVDp">
    <mxGraphModel dx="436" dy="346" grid="1" gridSize="10" guides="1" tooltips="1" connect="1" arrows="1" fold="1" page="1" pageScale="1" pageWidth="980" pageHeight="690" math="0" shadow="0">
      <root>
        <mxCell id="0" />
        <mxCell id="1" parent="0" />
        <mxCell id="NaBzRSXnJfvF8ngWOIrI-40" value="" style="ellipse;whiteSpace=wrap;html=1;rotation=-45;fillColor=none;dashed=1;strokeWidth=0.5;" vertex="1" parent="1">
          <mxGeometry x="260" y="65.87" width="220.25" height="80" as="geometry" />
        </mxCell>
        <mxCell id="vaZwTxLybMNeaWqCYO6f-1" value="" style="endArrow=classic;html=1;rounded=0;" parent="1" edge="1">
          <mxGeometry width="50" height="50" relative="1" as="geometry">
            <mxPoint x="130" y="107.87" as="sourcePoint" />
            <mxPoint x="130" y="47.87" as="targetPoint" />
          </mxGeometry>
        </mxCell>
        <mxCell id="vaZwTxLybMNeaWqCYO6f-30" value="" style="ellipse;whiteSpace=wrap;html=1;aspect=fixed;fillColor=#dae8fc;strokeColor=#6c8ebf;" parent="1" vertex="1">
          <mxGeometry x="158" y="76.37" width="8" height="8" as="geometry" />
        </mxCell>
        <mxCell id="vaZwTxLybMNeaWqCYO6f-38" value="" style="shape=flexArrow;endArrow=classic;html=1;rounded=0;fillColor=#f5f5f5;strokeColor=#666666;" parent="1" edge="1">
          <mxGeometry width="50" height="50" relative="1" as="geometry">
            <mxPoint x="238" y="106.87" as="sourcePoint" />
            <mxPoint x="278" y="106.87" as="targetPoint" />
          </mxGeometry>
        </mxCell>
        <mxCell id="NaBzRSXnJfvF8ngWOIrI-2" value="" style="ellipse;whiteSpace=wrap;html=1;aspect=fixed;fillColor=#dae8fc;strokeColor=#6c8ebf;" vertex="1" parent="1">
          <mxGeometry x="166" y="51.37" width="8" height="8" as="geometry" />
        </mxCell>
        <mxCell id="NaBzRSXnJfvF8ngWOIrI-3" value="" style="ellipse;whiteSpace=wrap;html=1;aspect=fixed;fillColor=#dae8fc;strokeColor=#6c8ebf;" vertex="1" parent="1">
          <mxGeometry x="108" y="127.87" width="8" height="8" as="geometry" />
        </mxCell>
        <mxCell id="NaBzRSXnJfvF8ngWOIrI-4" value="" style="ellipse;whiteSpace=wrap;html=1;aspect=fixed;fillColor=#dae8fc;strokeColor=#6c8ebf;" vertex="1" parent="1">
          <mxGeometry x="88" y="117.87" width="8" height="8" as="geometry" />
        </mxCell>
        <mxCell id="NaBzRSXnJfvF8ngWOIrI-5" value="" style="ellipse;whiteSpace=wrap;html=1;aspect=fixed;fillColor=#dae8fc;strokeColor=#6c8ebf;" vertex="1" parent="1">
          <mxGeometry x="188" y="65.87" width="8" height="8" as="geometry" />
        </mxCell>
        <mxCell id="NaBzRSXnJfvF8ngWOIrI-6" value="" style="ellipse;whiteSpace=wrap;html=1;aspect=fixed;fillColor=#dae8fc;strokeColor=#6c8ebf;" vertex="1" parent="1">
          <mxGeometry x="116" y="109.87" width="8" height="8" as="geometry" />
        </mxCell>
        <mxCell id="NaBzRSXnJfvF8ngWOIrI-8" value="" style="ellipse;whiteSpace=wrap;html=1;aspect=fixed;fillColor=#dae8fc;strokeColor=#6c8ebf;" vertex="1" parent="1">
          <mxGeometry x="128" y="88.87" width="8" height="8" as="geometry" />
        </mxCell>
        <mxCell id="NaBzRSXnJfvF8ngWOIrI-9" value="" style="ellipse;whiteSpace=wrap;html=1;aspect=fixed;fillColor=#dae8fc;strokeColor=#6c8ebf;" vertex="1" parent="1">
          <mxGeometry x="80" y="146.87" width="8" height="8" as="geometry" />
        </mxCell>
        <mxCell id="NaBzRSXnJfvF8ngWOIrI-10" value="" style="ellipse;whiteSpace=wrap;html=1;aspect=fixed;fillColor=#dae8fc;strokeColor=#6c8ebf;" vertex="1" parent="1">
          <mxGeometry x="150" y="115.87" width="8" height="8" as="geometry" />
        </mxCell>
        <mxCell id="NaBzRSXnJfvF8ngWOIrI-11" value="" style="ellipse;whiteSpace=wrap;html=1;aspect=fixed;fillColor=#dae8fc;strokeColor=#6c8ebf;" vertex="1" parent="1">
          <mxGeometry x="136" y="65.87" width="8" height="8" as="geometry" />
        </mxCell>
        <mxCell id="NaBzRSXnJfvF8ngWOIrI-12" value="" style="ellipse;whiteSpace=wrap;html=1;aspect=fixed;fillColor=#dae8fc;strokeColor=#6c8ebf;" vertex="1" parent="1">
          <mxGeometry x="196" y="36.87" width="8" height="8" as="geometry" />
        </mxCell>
        <mxCell id="NaBzRSXnJfvF8ngWOIrI-27" value="" style="endArrow=classic;html=1;rounded=0;entryX=0.5;entryY=0;entryDx=0;entryDy=0;" edge="1" parent="1" target="NaBzRSXnJfvF8ngWOIrI-40">
          <mxGeometry width="50" height="50" relative="1" as="geometry">
            <mxPoint x="370" y="107.87" as="sourcePoint" />
            <mxPoint x="370" y="46.87" as="targetPoint" />
          </mxGeometry>
        </mxCell>
        <mxCell id="NaBzRSXnJfvF8ngWOIrI-29" value="" style="ellipse;whiteSpace=wrap;html=1;aspect=fixed;fillColor=#dae8fc;strokeColor=#6c8ebf;" vertex="1" parent="1">
          <mxGeometry x="398" y="76.37" width="8" height="8" as="geometry" />
        </mxCell>
        <mxCell id="NaBzRSXnJfvF8ngWOIrI-30" value="" style="ellipse;whiteSpace=wrap;html=1;aspect=fixed;fillColor=#dae8fc;strokeColor=#6c8ebf;" vertex="1" parent="1">
          <mxGeometry x="406" y="51.37" width="8" height="8" as="geometry" />
        </mxCell>
        <mxCell id="NaBzRSXnJfvF8ngWOIrI-31" value="" style="ellipse;whiteSpace=wrap;html=1;aspect=fixed;fillColor=#dae8fc;strokeColor=#6c8ebf;" vertex="1" parent="1">
          <mxGeometry x="348" y="127.87" width="8" height="8" as="geometry" />
        </mxCell>
        <mxCell id="NaBzRSXnJfvF8ngWOIrI-32" value="" style="ellipse;whiteSpace=wrap;html=1;aspect=fixed;fillColor=#dae8fc;strokeColor=#6c8ebf;" vertex="1" parent="1">
          <mxGeometry x="328" y="117.87" width="8" height="8" as="geometry" />
        </mxCell>
        <mxCell id="NaBzRSXnJfvF8ngWOIrI-33" value="" style="ellipse;whiteSpace=wrap;html=1;aspect=fixed;fillColor=#dae8fc;strokeColor=#6c8ebf;" vertex="1" parent="1">
          <mxGeometry x="428" y="65.87" width="8" height="8" as="geometry" />
        </mxCell>
        <mxCell id="NaBzRSXnJfvF8ngWOIrI-34" value="" style="ellipse;whiteSpace=wrap;html=1;aspect=fixed;fillColor=#dae8fc;strokeColor=#6c8ebf;" vertex="1" parent="1">
          <mxGeometry x="356" y="109.87" width="8" height="8" as="geometry" />
        </mxCell>
        <mxCell id="NaBzRSXnJfvF8ngWOIrI-35" value="" style="ellipse;whiteSpace=wrap;html=1;aspect=fixed;fillColor=#dae8fc;strokeColor=#6c8ebf;" vertex="1" parent="1">
          <mxGeometry x="368" y="88.87" width="8" height="8" as="geometry" />
        </mxCell>
        <mxCell id="NaBzRSXnJfvF8ngWOIrI-36" value="" style="ellipse;whiteSpace=wrap;html=1;aspect=fixed;fillColor=#dae8fc;strokeColor=#6c8ebf;" vertex="1" parent="1">
          <mxGeometry x="320" y="146.87" width="8" height="8" as="geometry" />
        </mxCell>
        <mxCell id="NaBzRSXnJfvF8ngWOIrI-37" value="" style="ellipse;whiteSpace=wrap;html=1;aspect=fixed;fillColor=#dae8fc;strokeColor=#6c8ebf;" vertex="1" parent="1">
          <mxGeometry x="390" y="115.87" width="8" height="8" as="geometry" />
        </mxCell>
        <mxCell id="NaBzRSXnJfvF8ngWOIrI-38" value="" style="ellipse;whiteSpace=wrap;html=1;aspect=fixed;fillColor=#dae8fc;strokeColor=#6c8ebf;" vertex="1" parent="1">
          <mxGeometry x="376" y="65.87" width="8" height="8" as="geometry" />
        </mxCell>
        <mxCell id="NaBzRSXnJfvF8ngWOIrI-42" value="" style="endArrow=classic;html=1;rounded=0;" edge="1" parent="1">
          <mxGeometry width="50" height="50" relative="1" as="geometry">
            <mxPoint x="130" y="107.87" as="sourcePoint" />
            <mxPoint x="190" y="107.87" as="targetPoint" />
          </mxGeometry>
        </mxCell>
        <mxCell id="NaBzRSXnJfvF8ngWOIrI-44" value="" style="endArrow=classic;html=1;rounded=0;entryX=1;entryY=0.5;entryDx=0;entryDy=0;" edge="1" parent="1" target="NaBzRSXnJfvF8ngWOIrI-40">
          <mxGeometry width="50" height="50" relative="1" as="geometry">
            <mxPoint x="370" y="107.87" as="sourcePoint" />
            <mxPoint x="432" y="107.87" as="targetPoint" />
          </mxGeometry>
        </mxCell>
        <mxCell id="NaBzRSXnJfvF8ngWOIrI-39" value="" style="ellipse;whiteSpace=wrap;html=1;aspect=fixed;fillColor=#dae8fc;strokeColor=#6c8ebf;" vertex="1" parent="1">
          <mxGeometry x="436" y="36.87" width="8" height="8" as="geometry" />
        </mxCell>
        <mxCell id="NaBzRSXnJfvF8ngWOIrI-45" value="" style="ellipse;whiteSpace=wrap;html=1;aspect=fixed;fillColor=#dae8fc;strokeColor=#6c8ebf;" vertex="1" parent="1">
          <mxGeometry x="60" y="167.87" width="8" height="8" as="geometry" />
        </mxCell>
        <mxCell id="NaBzRSXnJfvF8ngWOIrI-81" value="" style="ellipse;whiteSpace=wrap;html=1;aspect=fixed;fillColor=#dae8fc;strokeColor=#6c8ebf;" vertex="1" parent="1">
          <mxGeometry x="300" y="167.87" width="8" height="8" as="geometry" />
        </mxCell>
        <mxCell id="NaBzRSXnJfvF8ngWOIrI-82" value="&lt;font style=&quot;font-size: 24px;&quot;&gt;&lt;b&gt;A&lt;/b&gt;&lt;/font&gt;" style="text;html=1;align=center;verticalAlign=middle;resizable=0;points=[];autosize=1;strokeColor=none;fillColor=none;" vertex="1" parent="1">
          <mxGeometry width="40" height="40" as="geometry" />
        </mxCell>
        <mxCell id="NaBzRSXnJfvF8ngWOIrI-83" value="&lt;font style=&quot;font-size: 24px;&quot;&gt;&lt;b&gt;B&lt;/b&gt;&lt;/font&gt;" style="text;html=1;align=center;verticalAlign=middle;resizable=0;points=[];autosize=1;strokeColor=none;fillColor=none;" vertex="1" parent="1">
          <mxGeometry y="209" width="40" height="40" as="geometry" />
        </mxCell>
        <mxCell id="NaBzRSXnJfvF8ngWOIrI-113" value="" style="ellipse;whiteSpace=wrap;html=1;rotation=306;fillColor=none;dashed=1;strokeWidth=0.5;" vertex="1" parent="1">
          <mxGeometry x="259.87" y="228.69" width="234.18" height="154.24" as="geometry" />
        </mxCell>
        <mxCell id="NaBzRSXnJfvF8ngWOIrI-114" value="" style="endArrow=classic;html=1;rounded=0;" edge="1" parent="1">
          <mxGeometry width="50" height="50" relative="1" as="geometry">
            <mxPoint x="130" y="307.1544055256304" as="sourcePoint" />
            <mxPoint x="130" y="247.15440552563044" as="targetPoint" />
          </mxGeometry>
        </mxCell>
        <mxCell id="NaBzRSXnJfvF8ngWOIrI-115" value="" style="ellipse;whiteSpace=wrap;html=1;aspect=fixed;fillColor=#dae8fc;strokeColor=#6c8ebf;" vertex="1" parent="1">
          <mxGeometry x="152" y="275.6544055256304" width="8" height="8" as="geometry" />
        </mxCell>
        <mxCell id="NaBzRSXnJfvF8ngWOIrI-116" value="" style="shape=flexArrow;endArrow=classic;html=1;rounded=0;fillColor=#f5f5f5;strokeColor=#666666;" edge="1" parent="1">
          <mxGeometry width="50" height="50" relative="1" as="geometry">
            <mxPoint x="238" y="306.1544055256304" as="sourcePoint" />
            <mxPoint x="278" y="306.1544055256304" as="targetPoint" />
          </mxGeometry>
        </mxCell>
        <mxCell id="NaBzRSXnJfvF8ngWOIrI-117" value="" style="ellipse;whiteSpace=wrap;html=1;aspect=fixed;fillColor=#dae8fc;strokeColor=#6c8ebf;" vertex="1" parent="1">
          <mxGeometry x="166" y="288.1544055256304" width="8" height="8" as="geometry" />
        </mxCell>
        <mxCell id="NaBzRSXnJfvF8ngWOIrI-118" value="" style="ellipse;whiteSpace=wrap;html=1;aspect=fixed;fillColor=#f8cecc;strokeColor=#b85450;" vertex="1" parent="1">
          <mxGeometry x="124" y="296.1544055256304" width="8" height="8" as="geometry" />
        </mxCell>
        <mxCell id="NaBzRSXnJfvF8ngWOIrI-119" value="" style="ellipse;whiteSpace=wrap;html=1;aspect=fixed;fillColor=#f8cecc;strokeColor=#b85450;" vertex="1" parent="1">
          <mxGeometry x="136" y="277.1544055256304" width="8" height="8" as="geometry" />
        </mxCell>
        <mxCell id="NaBzRSXnJfvF8ngWOIrI-120" value="" style="ellipse;whiteSpace=wrap;html=1;aspect=fixed;fillColor=#dae8fc;strokeColor=#6c8ebf;" vertex="1" parent="1">
          <mxGeometry x="174" y="259.6544055256304" width="8" height="8" as="geometry" />
        </mxCell>
        <mxCell id="NaBzRSXnJfvF8ngWOIrI-121" value="" style="ellipse;whiteSpace=wrap;html=1;aspect=fixed;fillColor=#f8cecc;strokeColor=#b85450;" vertex="1" parent="1">
          <mxGeometry x="136" y="248.1544055256304" width="8" height="8" as="geometry" />
        </mxCell>
        <mxCell id="NaBzRSXnJfvF8ngWOIrI-122" value="" style="ellipse;whiteSpace=wrap;html=1;aspect=fixed;fillColor=#dae8fc;strokeColor=#6c8ebf;" vertex="1" parent="1">
          <mxGeometry x="144" y="300.1544055256304" width="8" height="8" as="geometry" />
        </mxCell>
        <mxCell id="NaBzRSXnJfvF8ngWOIrI-123" value="" style="ellipse;whiteSpace=wrap;html=1;aspect=fixed;fillColor=#f8cecc;strokeColor=#b85450;" vertex="1" parent="1">
          <mxGeometry x="120" y="242.6544055256304" width="8" height="8" as="geometry" />
        </mxCell>
        <mxCell id="NaBzRSXnJfvF8ngWOIrI-124" value="" style="ellipse;whiteSpace=wrap;html=1;aspect=fixed;fillColor=#dae8fc;strokeColor=#6c8ebf;" vertex="1" parent="1">
          <mxGeometry x="210" y="257.1544055256304" width="8" height="8" as="geometry" />
        </mxCell>
        <mxCell id="NaBzRSXnJfvF8ngWOIrI-125" value="" style="ellipse;whiteSpace=wrap;html=1;aspect=fixed;fillColor=#dae8fc;strokeColor=#6c8ebf;" vertex="1" parent="1">
          <mxGeometry x="196" y="248.1544055256304" width="8" height="8" as="geometry" />
        </mxCell>
        <mxCell id="NaBzRSXnJfvF8ngWOIrI-126" value="" style="ellipse;whiteSpace=wrap;html=1;aspect=fixed;fillColor=#dae8fc;strokeColor=#6c8ebf;" vertex="1" parent="1">
          <mxGeometry x="188" y="277.1544055256304" width="8" height="8" as="geometry" />
        </mxCell>
        <mxCell id="NaBzRSXnJfvF8ngWOIrI-138" value="" style="endArrow=classic;html=1;rounded=0;" edge="1" parent="1">
          <mxGeometry width="50" height="50" relative="1" as="geometry">
            <mxPoint x="130" y="307.1544055256304" as="sourcePoint" />
            <mxPoint x="190" y="307.1544055256304" as="targetPoint" />
          </mxGeometry>
        </mxCell>
        <mxCell id="NaBzRSXnJfvF8ngWOIrI-141" value="" style="ellipse;whiteSpace=wrap;html=1;aspect=fixed;fillColor=#f8cecc;strokeColor=#b85450;" vertex="1" parent="1">
          <mxGeometry x="120" y="269.1544055256304" width="8" height="8" as="geometry" />
        </mxCell>
        <mxCell id="NaBzRSXnJfvF8ngWOIrI-145" value="" style="ellipse;whiteSpace=wrap;html=1;aspect=fixed;fillColor=#f8cecc;strokeColor=#b85450;" vertex="1" parent="1">
          <mxGeometry x="132" y="225" width="8" height="8" as="geometry" />
        </mxCell>
        <mxCell id="NaBzRSXnJfvF8ngWOIrI-146" value="" style="ellipse;whiteSpace=wrap;html=1;aspect=fixed;fillColor=#dae8fc;strokeColor=#6c8ebf;" vertex="1" parent="1">
          <mxGeometry x="128" y="315.15" width="8" height="8" as="geometry" />
        </mxCell>
        <mxCell id="NaBzRSXnJfvF8ngWOIrI-147" value="" style="ellipse;whiteSpace=wrap;html=1;aspect=fixed;fillColor=#dae8fc;strokeColor=#6c8ebf;" vertex="1" parent="1">
          <mxGeometry x="108" y="315.15" width="8" height="8" as="geometry" />
        </mxCell>
        <mxCell id="NaBzRSXnJfvF8ngWOIrI-148" value="" style="ellipse;whiteSpace=wrap;html=1;aspect=fixed;fillColor=#dae8fc;strokeColor=#6c8ebf;" vertex="1" parent="1">
          <mxGeometry x="100" y="337.15" width="8" height="8" as="geometry" />
        </mxCell>
        <mxCell id="NaBzRSXnJfvF8ngWOIrI-149" value="" style="ellipse;whiteSpace=wrap;html=1;aspect=fixed;fillColor=#dae8fc;strokeColor=#6c8ebf;" vertex="1" parent="1">
          <mxGeometry x="80" y="329.15" width="8" height="8" as="geometry" />
        </mxCell>
        <mxCell id="NaBzRSXnJfvF8ngWOIrI-151" value="" style="ellipse;whiteSpace=wrap;html=1;aspect=fixed;fillColor=#f8cecc;strokeColor=#b85450;" vertex="1" parent="1">
          <mxGeometry x="136" y="327.15" width="8" height="8" as="geometry" />
        </mxCell>
        <mxCell id="NaBzRSXnJfvF8ngWOIrI-152" value="" style="ellipse;whiteSpace=wrap;html=1;aspect=fixed;fillColor=#dae8fc;strokeColor=#6c8ebf;" vertex="1" parent="1">
          <mxGeometry x="80" y="353" width="8" height="8" as="geometry" />
        </mxCell>
        <mxCell id="NaBzRSXnJfvF8ngWOIrI-153" value="" style="ellipse;whiteSpace=wrap;html=1;aspect=fixed;fillColor=#f8cecc;strokeColor=#b85450;" vertex="1" parent="1">
          <mxGeometry x="120" y="315.15" width="8" height="8" as="geometry" />
        </mxCell>
        <mxCell id="NaBzRSXnJfvF8ngWOIrI-154" value="" style="ellipse;whiteSpace=wrap;html=1;aspect=fixed;fillColor=#f8cecc;strokeColor=#b85450;" vertex="1" parent="1">
          <mxGeometry x="120" y="346.15" width="8" height="8" as="geometry" />
        </mxCell>
        <mxCell id="NaBzRSXnJfvF8ngWOIrI-155" value="" style="ellipse;whiteSpace=wrap;html=1;aspect=fixed;fillColor=#f8cecc;strokeColor=#b85450;" vertex="1" parent="1">
          <mxGeometry x="136" y="359.15" width="8" height="8" as="geometry" />
        </mxCell>
        <mxCell id="NaBzRSXnJfvF8ngWOIrI-156" value="" style="ellipse;whiteSpace=wrap;html=1;aspect=fixed;fillColor=#f8cecc;strokeColor=#b85450;" vertex="1" parent="1">
          <mxGeometry x="124" y="375.15" width="8" height="8" as="geometry" />
        </mxCell>
        <mxCell id="NaBzRSXnJfvF8ngWOIrI-162" value="" style="ellipse;whiteSpace=wrap;html=1;aspect=fixed;fillColor=#dae8fc;strokeColor=#6c8ebf;" vertex="1" parent="1">
          <mxGeometry x="52" y="361" width="8" height="8" as="geometry" />
        </mxCell>
        <mxCell id="NaBzRSXnJfvF8ngWOIrI-163" value="" style="ellipse;whiteSpace=wrap;html=1;aspect=fixed;fillColor=#dae8fc;strokeColor=#6c8ebf;" vertex="1" parent="1">
          <mxGeometry x="60" y="345.15" width="8" height="8" as="geometry" />
        </mxCell>
        <mxCell id="NaBzRSXnJfvF8ngWOIrI-217" value="" style="endArrow=classic;html=1;rounded=0;entryX=0.5;entryY=0;entryDx=0;entryDy=0;" edge="1" parent="1" target="NaBzRSXnJfvF8ngWOIrI-113">
          <mxGeometry width="50" height="50" relative="1" as="geometry">
            <mxPoint x="370" y="307.1544055256304" as="sourcePoint" />
            <mxPoint x="311.6636093938041" y="259.85000134320444" as="targetPoint" />
          </mxGeometry>
        </mxCell>
        <mxCell id="NaBzRSXnJfvF8ngWOIrI-218" value="" style="ellipse;whiteSpace=wrap;html=1;aspect=fixed;fillColor=#dae8fc;strokeColor=#6c8ebf;" vertex="1" parent="1">
          <mxGeometry x="392" y="275.6544055256304" width="8" height="8" as="geometry" />
        </mxCell>
        <mxCell id="NaBzRSXnJfvF8ngWOIrI-219" value="" style="ellipse;whiteSpace=wrap;html=1;aspect=fixed;fillColor=#dae8fc;strokeColor=#6c8ebf;" vertex="1" parent="1">
          <mxGeometry x="406" y="288.1544055256304" width="8" height="8" as="geometry" />
        </mxCell>
        <mxCell id="NaBzRSXnJfvF8ngWOIrI-220" value="" style="ellipse;whiteSpace=wrap;html=1;aspect=fixed;fillColor=#f8cecc;strokeColor=#b85450;" vertex="1" parent="1">
          <mxGeometry x="364" y="296.1544055256304" width="8" height="8" as="geometry" />
        </mxCell>
        <mxCell id="NaBzRSXnJfvF8ngWOIrI-221" value="" style="ellipse;whiteSpace=wrap;html=1;aspect=fixed;fillColor=#f8cecc;strokeColor=#b85450;" vertex="1" parent="1">
          <mxGeometry x="376" y="277.1544055256304" width="8" height="8" as="geometry" />
        </mxCell>
        <mxCell id="NaBzRSXnJfvF8ngWOIrI-222" value="" style="ellipse;whiteSpace=wrap;html=1;aspect=fixed;fillColor=#dae8fc;strokeColor=#6c8ebf;" vertex="1" parent="1">
          <mxGeometry x="414" y="259.6544055256304" width="8" height="8" as="geometry" />
        </mxCell>
        <mxCell id="NaBzRSXnJfvF8ngWOIrI-223" value="" style="ellipse;whiteSpace=wrap;html=1;aspect=fixed;fillColor=#f8cecc;strokeColor=#b85450;" vertex="1" parent="1">
          <mxGeometry x="376" y="248.15440552563038" width="8" height="8" as="geometry" />
        </mxCell>
        <mxCell id="NaBzRSXnJfvF8ngWOIrI-224" value="" style="ellipse;whiteSpace=wrap;html=1;aspect=fixed;fillColor=#dae8fc;strokeColor=#6c8ebf;" vertex="1" parent="1">
          <mxGeometry x="384" y="300.1544055256304" width="8" height="8" as="geometry" />
        </mxCell>
        <mxCell id="NaBzRSXnJfvF8ngWOIrI-225" value="" style="ellipse;whiteSpace=wrap;html=1;aspect=fixed;fillColor=#f8cecc;strokeColor=#b85450;" vertex="1" parent="1">
          <mxGeometry x="360" y="242.65440552563038" width="8" height="8" as="geometry" />
        </mxCell>
        <mxCell id="NaBzRSXnJfvF8ngWOIrI-226" value="" style="ellipse;whiteSpace=wrap;html=1;aspect=fixed;fillColor=#dae8fc;strokeColor=#6c8ebf;" vertex="1" parent="1">
          <mxGeometry x="450" y="257.1544055256304" width="8" height="8" as="geometry" />
        </mxCell>
        <mxCell id="NaBzRSXnJfvF8ngWOIrI-227" value="" style="ellipse;whiteSpace=wrap;html=1;aspect=fixed;fillColor=#dae8fc;strokeColor=#6c8ebf;" vertex="1" parent="1">
          <mxGeometry x="436" y="248.15440552563038" width="8" height="8" as="geometry" />
        </mxCell>
        <mxCell id="NaBzRSXnJfvF8ngWOIrI-228" value="" style="ellipse;whiteSpace=wrap;html=1;aspect=fixed;fillColor=#dae8fc;strokeColor=#6c8ebf;" vertex="1" parent="1">
          <mxGeometry x="428" y="277.1544055256304" width="8" height="8" as="geometry" />
        </mxCell>
        <mxCell id="NaBzRSXnJfvF8ngWOIrI-229" value="" style="endArrow=classic;html=1;rounded=0;entryX=1;entryY=0.5;entryDx=0;entryDy=0;" edge="1" parent="1" target="NaBzRSXnJfvF8ngWOIrI-113">
          <mxGeometry width="50" height="50" relative="1" as="geometry">
            <mxPoint x="370" y="307.1544055256304" as="sourcePoint" />
            <mxPoint x="438.78485090870777" y="216.08700349445962" as="targetPoint" />
          </mxGeometry>
        </mxCell>
        <mxCell id="NaBzRSXnJfvF8ngWOIrI-230" value="" style="ellipse;whiteSpace=wrap;html=1;aspect=fixed;fillColor=#f8cecc;strokeColor=#b85450;" vertex="1" parent="1">
          <mxGeometry x="360" y="269.1544055256304" width="8" height="8" as="geometry" />
        </mxCell>
        <mxCell id="NaBzRSXnJfvF8ngWOIrI-231" value="" style="ellipse;whiteSpace=wrap;html=1;aspect=fixed;fillColor=#f8cecc;strokeColor=#b85450;" vertex="1" parent="1">
          <mxGeometry x="372" y="224.99999999999997" width="8" height="8" as="geometry" />
        </mxCell>
        <mxCell id="NaBzRSXnJfvF8ngWOIrI-232" value="" style="ellipse;whiteSpace=wrap;html=1;aspect=fixed;fillColor=#dae8fc;strokeColor=#6c8ebf;" vertex="1" parent="1">
          <mxGeometry x="368" y="315.15" width="8" height="8" as="geometry" />
        </mxCell>
        <mxCell id="NaBzRSXnJfvF8ngWOIrI-233" value="" style="ellipse;whiteSpace=wrap;html=1;aspect=fixed;fillColor=#dae8fc;strokeColor=#6c8ebf;" vertex="1" parent="1">
          <mxGeometry x="348" y="315.15" width="8" height="8" as="geometry" />
        </mxCell>
        <mxCell id="NaBzRSXnJfvF8ngWOIrI-234" value="" style="ellipse;whiteSpace=wrap;html=1;aspect=fixed;fillColor=#dae8fc;strokeColor=#6c8ebf;" vertex="1" parent="1">
          <mxGeometry x="340" y="337.15" width="8" height="8" as="geometry" />
        </mxCell>
        <mxCell id="NaBzRSXnJfvF8ngWOIrI-235" value="" style="ellipse;whiteSpace=wrap;html=1;aspect=fixed;fillColor=#dae8fc;strokeColor=#6c8ebf;" vertex="1" parent="1">
          <mxGeometry x="320" y="329.15" width="8" height="8" as="geometry" />
        </mxCell>
        <mxCell id="NaBzRSXnJfvF8ngWOIrI-236" value="" style="ellipse;whiteSpace=wrap;html=1;aspect=fixed;fillColor=#f8cecc;strokeColor=#b85450;" vertex="1" parent="1">
          <mxGeometry x="376" y="327.15" width="8" height="8" as="geometry" />
        </mxCell>
        <mxCell id="NaBzRSXnJfvF8ngWOIrI-237" value="" style="ellipse;whiteSpace=wrap;html=1;aspect=fixed;fillColor=#dae8fc;strokeColor=#6c8ebf;" vertex="1" parent="1">
          <mxGeometry x="320" y="353" width="8" height="8" as="geometry" />
        </mxCell>
        <mxCell id="NaBzRSXnJfvF8ngWOIrI-238" value="" style="ellipse;whiteSpace=wrap;html=1;aspect=fixed;fillColor=#f8cecc;strokeColor=#b85450;" vertex="1" parent="1">
          <mxGeometry x="360" y="315.15" width="8" height="8" as="geometry" />
        </mxCell>
        <mxCell id="NaBzRSXnJfvF8ngWOIrI-239" value="" style="ellipse;whiteSpace=wrap;html=1;aspect=fixed;fillColor=#f8cecc;strokeColor=#b85450;" vertex="1" parent="1">
          <mxGeometry x="360" y="346.15" width="8" height="8" as="geometry" />
        </mxCell>
        <mxCell id="NaBzRSXnJfvF8ngWOIrI-240" value="" style="ellipse;whiteSpace=wrap;html=1;aspect=fixed;fillColor=#f8cecc;strokeColor=#b85450;" vertex="1" parent="1">
          <mxGeometry x="376" y="359.15" width="8" height="8" as="geometry" />
        </mxCell>
        <mxCell id="NaBzRSXnJfvF8ngWOIrI-241" value="" style="ellipse;whiteSpace=wrap;html=1;aspect=fixed;fillColor=#f8cecc;strokeColor=#b85450;" vertex="1" parent="1">
          <mxGeometry x="364" y="375.15" width="8" height="8" as="geometry" />
        </mxCell>
        <mxCell id="NaBzRSXnJfvF8ngWOIrI-242" value="" style="ellipse;whiteSpace=wrap;html=1;aspect=fixed;fillColor=#dae8fc;strokeColor=#6c8ebf;" vertex="1" parent="1">
          <mxGeometry x="292" y="361" width="8" height="8" as="geometry" />
        </mxCell>
        <mxCell id="NaBzRSXnJfvF8ngWOIrI-243" value="" style="ellipse;whiteSpace=wrap;html=1;aspect=fixed;fillColor=#dae8fc;strokeColor=#6c8ebf;" vertex="1" parent="1">
          <mxGeometry x="300" y="345.15" width="8" height="8" as="geometry" />
        </mxCell>
      </root>
    </mxGraphModel>
  </diagram>
</mxfile>
